<svg xmlns="http://www.w3.org/2000/svg" width="23" height="25" viewBox="0 0 23 25">
    <path fill="#C6C6C6" fill-rule="nonzero" d="M11.294 21.1l3.844-1.03a1.989 1.989 0 0 1-1.407 2.438 1.989 1.989 0 0 1-2.437-1.407zm8.986-5.021l.614.539c.425.374.324.778-.205.92L5.22 21.683c-.53.142-.816-.17-.638-.695l.262-.774c.357-1.055.409-2.76.123-3.83l-.988-3.686a6.873 6.873 0 0 1 3.378-7.832l-.186-.695a1.588 1.588 0 0 1 1.124-1.947c.85-.228 1.72.274 1.947 1.124l.187.695a6.873 6.873 0 0 1 6.841 5.093l.988 3.687c.286 1.069 1.191 2.526 2.02 3.256z"/>
</svg>
