<svg xmlns="http://www.w3.org/2000/svg" width="18" height="13" viewBox="0 0 18 13">
    <path fill="#666" fill-rule="evenodd" d="M1.513 5L3.608.915C3.824.41 4.445 0 4.996 0h8.008c.55 0 1.175.417 1.388.915L16.487 5h.52c.548 0 .993.451.993.99V11h-2v.5c0 .828-.666 1.5-1.5 1.5-.828 0-1.5-.674-1.5-1.5V11H5v.5c0 .828-.666 1.5-1.5 1.5-.828 0-1.5-.674-1.5-1.5V11H0V5.99C0 5.445.445 5 .993 5h.52zM3.5 9a1.5 1.5 0 1 0 0-3 1.5 1.5 0 0 0 0 3zm11 0a1.5 1.5 0 1 0 0-3 1.5 1.5 0 0 0 0 3zm-.533-4L12.68 2H5.32L4.033 5h9.934z"/>
</svg>
