<svg xmlns="http://www.w3.org/2000/svg" width="23" height="16" viewBox="0 0 23 16">
    <path fill="#C6C6C6" fill-rule="evenodd" d="M12 7c0-.552.445-1 .996-1h9.008c.55 0 .996.444.996 1 0 .552-.445 1-.996 1h-9.008A.995.995 0 0 1 12 7zm2 4c0-.552.446-1 .998-1h7.004c.551 0 .998.444.998 1 0 .552-.446 1-.998 1h-7.004A.996.996 0 0 1 14 11zm0 4c0-.552.446-1 .998-1h7.004c.551 0 .998.444.998 1 0 .552-.446 1-.998 1h-7.004A.996.996 0 0 1 14 15zM0 12.5C0 10.567 1.569 9 3.503 9h4.994A3.504 3.504 0 0 1 12 12.5v2.497c0 .554-.456 1.003-1.002 1.003H1.002A.996.996 0 0 1 0 14.997V12.5zM6 8a4 4 0 1 1 0-8 4 4 0 0 1 0 8z"/>
</svg>
