<svg xmlns="http://www.w3.org/2000/svg" width="20" height="20" viewBox="0 0 20 20">
    <g fill="#F7941F" fill-rule="evenodd">
        <ellipse cx="9.786" cy="18.714" opacity=".2" rx="6.5" ry="1.286"/>
        <path d="M1.5 12.522a.997.997 0 0 1 .002-1.41L10.613 2l7.636 7.636-9.111 9.11a1 1 0 0 1-1.411.002L1.5 12.522zM17.159 2c.637 0 1.09.455 1.09 1.09v6.546L10.614 2h6.545zM9.502 13.464c.524 0 .976-.191 1.358-.573.32-.32.496-.654.527-1a2.03 2.03 0 0 0-.152-.987 9.197 9.197 0 0 0-.58-1.103c-.184-.306-.32-.552-.41-.735a1.305 1.305 0 0 1-.142-.538.606.606 0 0 1 .191-.46.74.74 0 0 1 .683-.222c.261.045.52.194.774.449.457.457.757 1.082.898 1.874l1.139-.432a2.61 2.61 0 0 0-.244-.93 4.927 4.927 0 0 0-.577-.965l.771-.77-.849-.849-.791.792c-.514-.363-1.042-.544-1.584-.544-.543 0-1.002.188-1.38.565-.325.325-.504.667-.537 1.026-.033.358.017.697.149 1.018.132.32.33.697.594 1.131.179.302.31.54.396.714.085.175.132.342.141.502.01.16-.045.3-.162.418a.728.728 0 0 1-.68.219c-.259-.047-.532-.215-.82-.502-.537-.538-.876-1.202-1.018-1.994l-1.138.431c.042.344.15.696.322 1.057.172.36.4.706.682 1.036l-.764.764.849.848.792-.792c.518.368 1.04.552 1.562.552zM16 5a1 1 0 1 0 0-2 1 1 0 0 0 0 2z"/>
    </g>
</svg>
