<svg xmlns="http://www.w3.org/2000/svg" width="28" height="25" viewBox="0 0 28 25">
    <path fill="#FFF" fill-rule="nonzero" d="M19.453 7.94c-2.599.135-4.859.923-6.694 2.703-1.854 1.799-2.7 4.003-2.469 6.735-1.016-.126-1.941-.265-2.872-.343-.321-.027-.703.011-.975.165-.903.51-1.77 1.085-2.796 1.727.188-.852.31-1.598.526-2.316.159-.527.085-.82-.4-1.164C.651 13.244-.664 9.947.32 6.553c.91-3.14 3.147-5.044 6.185-6.037 4.148-1.354 8.809.027 11.33 3.32.911 1.19 1.47 2.525 1.617 4.103zm5.84 16.203c-.823-.366-1.578-.916-2.382-1-.8-.084-1.642.378-2.48.464-2.552.261-4.838-.45-6.723-2.193-3.585-3.316-3.073-8.4 1.075-11.118 3.687-2.415 9.093-1.61 11.692 1.741 2.268 2.924 2.001 6.806-.767 9.262-.802.711-1.09 1.296-.576 2.234.095.173.106.392.16.61zM7.49 6.882c.024-.62-.514-1.18-1.153-1.199a1.164 1.164 0 0 0-1.211 1.125 1.15 1.15 0 0 0 1.14 1.194c.652.017 1.2-.484 1.224-1.12zm6.241-1.2c-.641.013-1.183.559-1.171 1.182a1.17 1.17 0 0 0 1.202 1.143A1.149 1.149 0 0 0 14.92 6.83a1.156 1.156 0 0 0-1.188-1.146zm2.192 9.39a.97.97 0 0 0 .976-.926.975.975 0 0 0-.969-1.01.985.985 0 0 0-.98 1.003.977.977 0 0 0 .973.934zm6.04-1.934a.969.969 0 0 0-.961.926c-.022.55.405 1 .948 1.002a.944.944 0 0 0 .96-.919.962.962 0 0 0-.947-1.009z"/>
</svg>
