<svg xmlns="http://www.w3.org/2000/svg" width="20" height="20" viewBox="0 0 20 20">
    <g fill="#F7941F" fill-rule="evenodd">
        <ellipse cx="10.143" cy="17.714" opacity=".2" rx="8.5" ry="1.286"/>
        <path d="M15 16H6v1c0 .552-.444 1-1 1-.552 0-1-.444-1-1v-1c-1.105 0-2-.888-2-2v-2h17v2c0 1.105-.89 2-2 2v1c0 .552-.444 1-1 1-.552 0-1-.444-1-1v-1zM1 11c0-.552.45-1 .995-1h17.01a1.001 1.001 0 0 1 0 2H1.995A.995.995 0 0 1 1 11zm3-7a3 3 0 0 1 5.583-1.528L8.6 2.8A2 2 0 0 0 5 4v6H4V4zm4.065 1.509A2.003 2.003 0 0 1 10 3a2 2 0 0 1 1.888 1.34L8.065 5.509z"/>
    </g>
</svg>
