<svg xmlns="http://www.w3.org/2000/svg" width="20" height="20" viewBox="0 0 20 20">
    <g fill="#F7941F" fill-rule="evenodd">
        <ellipse cx="9.643" cy="17.714" opacity=".2" rx="10" ry="1.286"/>
        <path d="M16 16H3v1.01c0 .546-.444.99-1 .99a1 1 0 0 1-1-.99V16H.995A.998.998 0 0 1 0 15.01v-4.02c0-.546.45-.99.995-.99h17.01c.55 0 .995.451.995.99v4.02c0 .546-.45.99-.995.99H18v1.01c0 .546-.444.99-1 .99a1 1 0 0 1-1-.99V16zm0-8a1 1 0 0 0-.99-1h-4.02A.993.993 0 0 0 10 8v1H9V8a1 1 0 0 0-.99-1H3.99A.993.993 0 0 0 3 8v1H1V3h17v6h-2V8z"/>
    </g>
</svg>
