<svg xmlns="http://www.w3.org/2000/svg" width="20" height="20" viewBox="0 0 20 20">
    <g fill="#F7941F" fill-rule="evenodd">
        <ellipse cx="9.643" cy="17.714" opacity=".2" rx="9" ry="1.286"/>
        <path d="M1.857 8l1.75-4.085C3.825 3.41 4.446 3 4.997 3h9.008c.55 0 1.175.417 1.388.915L17.142 8h.863c.55 0 .995.438.995 1.003V15h-2v1.501C17 17.33 16.334 18 15.5 18c-.828 0-1.5-.665-1.5-1.499V15H5v1.501C5 17.33 4.334 18 3.5 18c-.828 0-1.5-.665-1.5-1.499V15H0V9.003C0 8.449.45 8 .995 8h.862zM3.5 13a1.5 1.5 0 1 0 0-3 1.5 1.5 0 0 0 0 3zm12 0a1.5 1.5 0 1 0 0-3 1.5 1.5 0 0 0 0 3zm-.533-5L13.68 5H5.32L4.033 8h10.934z"/>
    </g>
</svg>
