<svg xmlns="http://www.w3.org/2000/svg" width="22" height="22" viewBox="0 0 22 22">
    <g fill="none" fill-rule="evenodd">
        <circle cx="11" cy="11" r="7" stroke="#0F76BB" stroke-width="2"/>
        <path fill="#0F76BB" d="M10 .997c0-.55.444-.997 1-.997.552 0 1 .453 1 .997v6.006c0 .55-.444.997-1 .997-.552 0-1-.453-1-.997V.997zm0 14c0-.55.444-.997 1-.997.552 0 1 .453 1 .997v6.006c0 .55-.444.997-1 .997-.552 0-1-.453-1-.997v-6.006zM21.003 10c.55 0 .997.444.997 1 0 .552-.453 1-.997 1h-6.006A.996.996 0 0 1 14 11c0-.552.453-1 .997-1h6.006zm-14 0c.55 0 .997.444.997 1 0 .552-.453 1-.997 1H.997A.996.996 0 0 1 0 11c0-.552.453-1 .997-1h6.006z"/>
    </g>
</svg>
