<svg xmlns="http://www.w3.org/2000/svg" width="254" height="204" viewBox="0 0 254 204">
    <g fill="none" fill-rule="evenodd">
        <path fill="#E3E3E3" d="M162.643 80.553H21.659L125 0l46.106 35.939V0h34.977v55.473l-43.44 25.08zm65.698 6.058v108.412H101.152v-34.98l34.977-20.194v21.257h23.318v-23.318h-19.748l18.358-10.6h1.39v-.801l11.659-6.732v7.534h23.318v-20.996l33.917-19.582zm-65.698-6.058l-61.49 35.502V103.87H55.575v38.497L21.659 161.95V80.553h140.984zM40.565 195.023h15.011v-8.666l-15.01 8.666zm130.541-57.235v23.318h23.318v-23.318h-23.318z"/>
        <path fill="#DADADA" d="M241.98 43.004a1.982 1.982 0 0 1 2.73.725l8.875 15.372c.555.961.237 2.192-.72 2.755L11.87 203.636c-.953.56-2.172.24-2.73-.725L.266 187.538a2.022 2.022 0 0 1 .72-2.754L241.98 43.004z"/>
    </g>
</svg>
