<svg xmlns="http://www.w3.org/2000/svg" width="80" height="134" viewBox="0 0 80 134">
    <path fill="#DADADA" fill-rule="evenodd" d="M78.889 133.333L40 100 1.111 133.333H0V.997A1 1 0 0 1 .997 0h78.006c.55 0 .997.457.997.997v132.336h-1.111zM36.648 57.696v2.56h4.736l.256-1.728c.213-1.536.757-2.901 1.632-4.096.875-1.195 2.187-2.73 3.936-4.608 2.005-2.005 3.541-3.84 4.608-5.504 1.067-1.664 1.6-3.605 1.6-5.824 0-2.048-.565-3.872-1.696-5.472-1.13-1.6-2.699-2.837-4.704-3.712S42.706 28 40.104 28c-2.773 0-5.547.47-8.32 1.408-2.773.939-5.035 2.197-6.784 3.776l2.688 6.016c1.963-1.493 3.957-2.645 5.984-3.456 2.027-.81 3.957-1.216 5.792-1.216s3.264.416 4.288 1.248c1.024.832 1.536 1.973 1.536 3.424 0 1.28-.299 2.432-.896 3.456s-1.515 2.283-2.752 3.776c-1.621 1.92-2.859 3.69-3.712 5.312-.853 1.621-1.28 3.605-1.28 5.952zm-1.984 15.936h8.96V64.8h-8.96v8.832z"/>
</svg>
