<svg xmlns="http://www.w3.org/2000/svg" width="166" height="147" viewBox="0 0 166 147">
    <g fill="#DADADA" fill-rule="evenodd">
        <path fill-rule="nonzero" d="M30.44 119.514l111.583-64.423a56.027 56.027 0 0 1 3.04 18.277l-.004 31.12c-.001 9.02 4.045 22.405 9.038 29.899l3.694 5.543c2.556 3.838.913 6.812-3.557 6.812l-130.491.019c-4.47 0-6.063-3.05-3.556-6.812l3.695-5.544c2.594-3.893 4.916-9.315 6.558-14.89zm2.492-33.77l.001-12.36c.004-26.497 18.342-48.676 43.116-54.55v-5.87A12.945 12.945 0 0 1 89.01 0a12.936 12.936 0 0 1 12.954 12.961v5.87a55.997 55.997 0 0 1 24.559 12.879l-93.59 54.034z" opacity=".5"/>
        <path d="M156.079 21.57a1.997 1.997 0 0 1 2.726.729l6.006 10.402c.55.954.224 2.174-.732 2.726L9.92 124.43a1.997 1.997 0 0 1-2.726-.729L1.189 113.3a1.995 1.995 0 0 1 .732-2.726L156.08 21.57z"/>
    </g>
</svg>
