<svg xmlns="http://www.w3.org/2000/svg" xmlns:xlink="http://www.w3.org/1999/xlink" width="167" height="53" viewBox="0 0 167 53">
    <defs>
        <path id="a" d="M0 53V.108h52.892V53H0z"/>
        <path id="c" d="M0 53h167V0H0z"/>
    </defs>
    <g fill="none" fill-rule="evenodd">
        <mask id="b" fill="#fff">
            <use xlink:href="#a"/>
        </mask>
        <path fill="#0F76BB" d="M52.892 26.554C52.892 41.16 41.052 53 26.446 53 11.84 53 0 41.159 0 26.554 0 11.95 11.84.108 26.446.108c14.606 0 26.446 11.84 26.446 26.446" mask="url(#b)"/>
        <path fill="#FFF" d="M38.792 41.081c-2.331-.078-3.615-.823-3.615-.823-.789-.463-.985-.162-.985-.162-.432.204 0 1.516 0 1.516.463 1.627 1.34 2.192 2.124 2.33 2.805.487 3.66-2.218 3.66-2.218.223-.892-1.184-.643-1.184-.643"/>
        <mask id="d" fill="#fff">
            <use xlink:href="#c"/>
        </mask>
        <path fill="#FFF" d="M24.206 24.673h4.59v-4.586h-4.59v4.586zm0 6.019h4.59v-4.589h-4.59v4.589zm-6.087-6.019h4.59v-4.586h-4.59v4.586zm0 6.019h4.59v-4.588h-4.59v4.588zm31.73-6.282c-3.433-5.944-7.314-10.69-10.338-13.749-1.405-1.422-2.151-2.492-3.085-2.25-.752.193-.79 1.857-.79 2.545 0 .641-.04 1.926-.062 2.566-.063 1.735-.3 1.91-.665 1.926-.948.04-2.478-1.185-2.478-1.185-1.027-.883-5.574-4.449-5.574-4.449C24.646 7.936 23.777 8 23.777 8c-1.247.03-3.209 1.512-4.185 2.156-6.178 4.073-11.053 8.29-14.117 10.989-1.7 1.498-2.367 2.203-2.463 2.76-.185 1.084 1.825.69 2.463.663 1.506-.063 1.677.86 1.77 1.42.434 2.639 1.968 10.087 1.968 10.087.884 3.767 2.183 3.96 3.415 3.705 1.351-.28 5.956-1.957 7.928-2.652 3.333-1.174 5.292-1.69 7.044-1.31 2.541.553 5.058 1.883 6.63 2.746 2.35 1.29 3.404 1.435 4.611 1.436 1.944.001 3.342-2.439 3.963-3.629 1.105-2.125 3.007-7.687 4.14-10.193.362-.803 1.511-.834 2.068-.82 1.31.03.995-.674.837-.948z" mask="url(#d)"/>
        <path fill="#F8941F" d="M68 29.275c3.483-.15 5.341-2.372 5.568-6.662-.304-4.215-2.158-6.434-5.568-6.66-3.485.226-5.303 2.445-5.454 6.66.151 4.29 1.97 6.512 5.454 6.662M68 33c-6.288-.3-9.621-3.762-10-10.387.455-6.548 3.788-10.085 10-10.613 6.136.528 9.469 4.065 10 10.613C77.545 29.238 74.21 32.7 68 33M80.333 29.463l6.445-8.934H82c-1.187 0-1.778-.588-1.778-1.765 0-1.102.591-1.69 1.778-1.764h9.334c.814.074 1.259.478 1.334 1.213 0 .44-.15.846-.446 1.212l-6.445 9.046h5.445c1.112.073 1.703.66 1.778 1.765-.075 1.177-.666 1.764-1.778 1.764h-9.556C80.555 32 80 31.521 80 30.564c0-.146.036-.402.11-.77.073-.147.148-.257.223-.33" mask="url(#d)"/>
        <path fill="#0F76BB" d="M94 29.877V12.232c.075-1.34.803-2.081 2.18-2.232 1.3.074 1.988.818 2.065 2.232v5.696h.115c.765-.894 2.027-1.376 3.788-1.453 3.671.224 5.623 2.052 5.852 5.475v7.927c-.154 1.416-.88 2.123-2.18 2.123-1.302 0-1.99-.707-2.066-2.123V22.73c-.154-1.786-1.073-2.75-2.755-2.902-1.76.151-2.678 1.116-2.754 2.902v7.148C98.168 31.293 97.48 32 96.181 32c-1.378 0-2.106-.707-2.181-2.123M117.5 20.886c-2.045.154-3.144 1.563-3.295 4.228.151 2.742 1.25 4.155 3.296 4.228 1.968-.073 3.067-1.486 3.296-4.228-.229-2.665-1.328-4.074-3.296-4.228m0-3.886c4.545.458 7.046 3.163 7.499 8.114-.38 5.028-2.88 7.656-7.5 7.886-4.697-.23-7.197-2.858-7.5-7.886.379-4.95 2.88-7.656 7.5-8.114M127 30.812V19.534c0-1.458.736-2.264 2.209-2.419 1.083.078 1.742.616 1.974 1.613 1.085-1.152 2.4-1.728 3.95-1.728 1.857.08 3.327.77 4.413 2.073 1.394-1.227 2.905-1.918 4.53-2.073 3.794.155 5.767 2.036 5.924 5.642v8.17c-.157 1.46-.891 2.188-2.208 2.188-1.394 0-2.089-.728-2.089-2.188v-7.367c-.157-1.84-1.008-2.835-2.556-2.99-1.626.155-2.48 1.15-2.555 2.99v7.367c-.079 1.46-.775 2.188-2.091 2.188-1.394 0-2.091-.728-2.091-2.188v-7.367c-.155-1.84-1.006-2.835-2.556-2.99-1.704.076-2.556 1.075-2.556 2.99v7.367c-.078 1.46-.775 2.188-2.09 2.188-1.394 0-2.13-.728-2.208-2.188M156.091 23.744h6.706c-.382-2.132-1.477-3.238-3.297-3.315-1.97.155-3.107 1.256-3.409 3.315m9.091 2.742h-8.977c.378 1.982 1.704 3.011 3.977 3.086.833 0 1.855-.342 3.068-1.03.757-.455 1.325-.685 1.705-.685.984.155 1.551.763 1.705 1.83-.53 1.98-2.804 3.084-6.819 3.313-4.999-.151-7.613-2.779-7.841-7.885.379-4.951 2.878-7.657 7.5-8.115 4.393.458 6.895 3.012 7.5 7.658 0 1.297-.605 1.905-1.818 1.828M64.09 42.06c-.036 1.712.434 2.547 1.41 2.507.973.04 1.463-.795 1.463-2.507 0-1.71-.49-2.566-1.463-2.566-.976 0-1.446.856-1.41 2.566m4.91 0c-.105 2.547-1.273 3.858-3.5 3.94-2.265-.082-3.432-1.393-3.5-3.94.068-2.586 1.235-3.94 3.5-4.06 2.227.12 3.395 1.474 3.5 4.06M76 46h-6v-1.612l3.872-4.776h-3.763V38h5.782v1.612l-3.873 4.776H76zM79.162 46H77V35h2.162v4.28h.058c.379-.711 1.119-1.088 2.22-1.129 1.288.2 2.085.754 2.389 1.665.075.477.132.873.171 1.19V46h-2.22v-4.577c-.037-1.15-.474-1.745-1.308-1.784-.797.079-1.233.675-1.31 1.784V46zM87.089 42.06c-.034 1.712.436 2.547 1.411 2.507.975.04 1.463-.795 1.463-2.507 0-1.71-.488-2.566-1.463-2.566-.975 0-1.445.856-1.411 2.566m4.911 0c-.105 2.547-1.271 3.858-3.5 3.94-2.265-.082-3.43-1.393-3.5-3.94.07-2.586 1.235-3.94 3.5-4.06 2.229.12 3.395 1.474 3.5 4.06M96.011 38.18v.972h.053c.421-.767 1.109-1.152 2.063-1.152 1.056.122 1.78.606 2.168 1.455.563-.97 1.339-1.455 2.327-1.455 1.021.162 1.744.648 2.167 1.455.142.446.211 1.073.211 1.88V46h-2.062v-4.665c-.035-1.172-.441-1.778-1.216-1.818-.74.08-1.146.688-1.218 1.818V46h-2.008v-4.665c-.07-1.214-.476-1.818-1.216-1.818-.777.12-1.182.725-1.216 1.818V46H94v-7.82h2.011zM108.201 41.104h2.54c0-1.074-.431-1.61-1.298-1.61-.79 0-1.203.536-1.242 1.61M113 42.657h-4.799c-.038 1.315.376 1.95 1.242 1.91.677.04 1.13-.276 1.355-.955h1.976c-.225 1.553-1.336 2.348-3.33 2.388-2.334 0-3.481-1.313-3.443-3.94.075-2.586 1.222-3.94 3.442-4.06 1.506 0 2.54.597 3.106 1.79.188.479.32.938.395 1.375v.656c.037.2.056.478.056.836M114 46h2v-2h-2zM124 40.927h-1.983c-.104-.916-.452-1.394-1.042-1.433-.523 0-.82.736-.887 2.208v.538c.034 1.592.347 2.368.94 2.327.626 0 .954-.496.989-1.49H124c-.139 1.908-1.13 2.883-2.973 2.923-1.878-.082-2.888-1.392-3.027-3.94.14-2.545 1.149-3.9 3.027-4.06 1.878.12 2.868 1.096 2.973 2.927M127.09 42.06c-.036 1.712.435 2.547 1.41 2.507.975.04 1.463-.795 1.463-2.507 0-1.71-.488-2.566-1.462-2.566-.976 0-1.447.856-1.411 2.566m4.91 0c-.105 2.547-1.272 3.858-3.5 3.94-2.264-.082-3.43-1.393-3.5-3.94.07-2.586 1.236-3.94 3.5-4.06 2.228.12 3.395 1.474 3.5 4.06M135.01 38.18v.972h.051c.424-.767 1.113-1.152 2.064-1.152 1.056.122 1.778.606 2.168 1.455.563-.97 1.339-1.455 2.326-1.455 1.021.162 1.745.648 2.169 1.455.14.446.212 1.073.212 1.88V46h-2.063v-4.665c-.036-1.172-.442-1.778-1.216-1.818-.74.08-1.148.688-1.217 1.818V46h-2.01v-4.665c-.071-1.214-.475-1.818-1.216-1.818-.776.12-1.181.725-1.217 1.818V46H133v-7.82h2.01zM146 46h2v-2h-2zM152.966 42.299c-1.388-.079-2.084.32-2.084 1.193 0 .678.322 1.038.966 1.075.746.04 1.118-.717 1.118-2.268m-1.779-1.91h-1.882c.035-.874.34-1.512.916-1.912.441-.277 1.085-.436 1.932-.477 1.797.041 2.713.997 2.746 2.867v4.476c.068.28.101.458.101.537h-1.728a5.422 5.422 0 0 1-.102-1.013c-.407.755-1.084 1.133-2.034 1.133-1.389-.082-2.102-.814-2.136-2.208.07-1.154.544-1.971 1.425-2.448.575-.277 1.423-.417 2.54-.417v-.719c-.1-.595-.405-.913-.913-.952-.51.039-.796.416-.865 1.134M161.86 45.877l-.114-.975c-.488.732-1.22 1.098-2.197 1.098-1.315-.083-2.122-.63-2.423-1.65-.112-.322-.15-.73-.112-1.22V38h2.14v4.765c.038 1.222.471 1.811 1.296 1.77.79-.082 1.221-.671 1.296-1.77V38h2.199v6.475a2.325 2.325 0 0 0 0 .73 5.7 5.7 0 0 1 .055.672h-2.14zM145.14 10.12V5.328h-3.999v3.176l-6.298-2.546L130 4l-4.843 1.958L110 12.085V16l20-8.084L150 16v-3.915z" mask="url(#d)"/>
    </g>
</svg>
