<svg xmlns="http://www.w3.org/2000/svg" xmlns:xlink="http://www.w3.org/1999/xlink" width="195" height="62" viewBox="0 0 195 62">
    <defs>
        <path id="a" d="M0 .126V62h62.244V.126H0z"/>
    </defs>
    <g fill="none" fill-rule="evenodd">
        <path fill="#FFF" d="M28 36h5v-5h-5zM21 36h5v-5h-5zM21 29h5v-5h-5z"/>
        <mask id="b" fill="#fff">
            <use xlink:href="#a"/>
        </mask>
        <path fill="#FFF" d="M57.282 30.197c-.648-.015-1.983.02-2.404.95-1.316 2.896-3.526 9.326-4.81 11.783-.722 1.375-2.347 4.196-4.604 4.194-1.403 0-2.628-.168-5.359-1.66-1.828-.998-4.751-2.534-7.705-3.174-2.035-.44-4.312.157-8.185 1.515-2.291.803-7.642 2.74-9.212 3.065-1.432.296-2.942.072-3.97-4.283 0 0-1.781-8.61-2.287-11.66-.107-.648-.306-1.715-2.056-1.641-.741.03-3.076.485-2.862-.766.111-.645.886-1.46 2.862-3.192 3.56-3.12 9.225-7.996 16.404-12.703 1.135-.744 3.415-2.457 4.864-2.492 0 0 1.01-.075 3.579 2.097 0 0 5.283 4.123 6.477 5.143 0 0 1.778 1.417 2.88 1.37.423-.02.699-.221.772-2.227.026-.74.073-2.224.072-2.966 0-.796.045-2.719.918-2.943 1.086-.28 1.952.958 3.585 2.602 3.514 3.535 8.024 9.022 12.013 15.894.183.316.551 1.13-.972 1.094m-10.79 19.209s-.981 3.157-4.204 2.587c-.9-.16-1.907-.819-2.439-2.717 0 0-.496-1.53 0-1.769 0 0 .226-.352 1.132.19 0 0 1.474.868 4.152.959 0 0 1.617-.29 1.36.75M31.121.126C13.934.126 0 13.978 0 31.064 0 48.148 13.934 62 31.122 62c17.188 0 31.122-13.852 31.122-30.936C62.244 13.978 48.31.126 31.122.126" mask="url(#b)"/>
        <path fill="#FFF" d="M28.456 29.407h5.333v-5.302h-5.333z"/>
        <path fill="#FFAB31" d="M80.055 34.397c4.125-.177 6.326-2.78 6.595-7.81-.36-4.941-2.556-7.542-6.595-7.808-4.128.266-6.281 2.867-6.46 7.808.179 5.03 2.332 7.633 6.46 7.81m0 4.367c-7.448-.352-11.396-4.411-11.844-12.177.538-7.676 4.486-11.823 11.844-12.441 7.267.618 11.214 4.765 11.844 12.441-.54 7.766-4.488 11.825-11.844 12.177M93.244 35.588l7.806-10.72h-5.787c-1.437 0-2.153-.706-2.153-2.118 0-1.323.716-2.029 2.153-2.118h11.305c.986.09 1.525.574 1.616 1.456 0 .529-.182 1.014-.54 1.455l-7.806 10.854h6.595c1.346.088 2.063.792 2.153 2.119-.09 1.411-.807 2.116-2.153 2.116H94.858c-1.345 0-2.017-.573-2.017-1.722 0-.176.043-.483.133-.925.089-.176.18-.308.27-.397"/>
        <path fill="#FFF" d="M110.336 36.117V15.204c.088-1.587.942-2.466 2.558-2.645 1.523.088 2.33.97 2.42 2.645v6.751h.135c.898-1.059 2.377-1.63 4.442-1.721 4.306.264 6.595 2.43 6.863 6.487v9.396c-.18 1.678-1.031 2.515-2.557 2.515-1.525 0-2.333-.837-2.422-2.515v-8.472c-.18-2.117-1.258-3.26-3.23-3.44-2.065.18-3.14 1.323-3.23 3.44v8.472c-.09 1.678-.898 2.515-2.421 2.515-1.616 0-2.47-.837-2.558-2.515M137.651 24.735c-2.423.177-3.724 1.81-3.903 4.897.179 3.175 1.48 4.81 3.903 4.896 2.33-.085 3.633-1.721 3.904-4.896-.271-3.087-1.573-4.72-3.904-4.897m0-4.5c5.384.53 8.346 3.663 8.882 9.397-.45 5.823-3.41 8.866-8.882 9.132-5.564-.266-8.525-3.31-8.884-9.132.449-5.734 3.41-8.867 8.884-9.398M148.55 36.117V23.148c0-1.678.854-2.604 2.56-2.782 1.254.09 2.018.709 2.288 1.854 1.256-1.324 2.779-1.986 4.576-1.986 2.152.091 3.855.884 5.113 2.383 1.616-1.41 3.366-2.205 5.249-2.383 4.395.178 6.682 2.34 6.864 6.487v9.396c-.182 1.678-1.033 2.515-2.558 2.515-1.616 0-2.42-.837-2.42-2.515v-8.472c-.183-2.117-1.169-3.26-2.963-3.44-1.884.18-2.873 1.323-2.96 3.44v8.472c-.091 1.678-.898 2.515-2.423 2.515-1.615 0-2.423-.837-2.423-2.515v-8.472c-.18-2.117-1.165-3.26-2.961-3.44-1.974.089-2.961 1.237-2.961 3.44v8.472c-.091 1.678-.898 2.515-2.421 2.515-1.617 0-2.47-.837-2.56-2.515M181.8 28.044h7.943c-.453-2.47-1.75-3.75-3.905-3.838-2.332.178-3.68 1.454-4.037 3.838m10.766 3.175h-10.632c.448 2.296 2.018 3.488 4.71 3.575.986 0 2.197-.397 3.634-1.192.897-.528 1.57-.795 2.019-.795 1.166.18 1.837.885 2.02 2.12-.629 2.294-3.321 3.571-8.076 3.837-5.92-.176-9.017-3.219-9.287-9.132.449-5.734 3.41-8.867 8.883-9.398 5.202.53 8.165 3.488 8.882 8.868 0 1.502-.717 2.207-2.153 2.117M74.65 49.441c-.041 1.946.518 2.895 1.68 2.85 1.158.045 1.743-.904 1.743-2.85 0-1.942-.585-2.915-1.743-2.915-1.162 0-1.721.973-1.68 2.915m5.848 0c-.125 2.895-1.516 4.384-4.168 4.478-2.696-.094-4.087-1.583-4.168-4.478.081-2.938 1.472-4.476 4.168-4.613 2.652.137 4.043 1.675 4.168 4.613M88.584 53.783h-6.843v-1.764l4.416-5.225h-4.292v-1.763h6.594v1.763l-4.417 5.225h4.542zM92.565 53.783H90.2V41.234h2.364v4.883h.063c.414-.812 1.223-1.241 2.426-1.288 1.41.227 2.28.86 2.612 1.899.083.544.144.996.187 1.358v5.697h-2.427V48.56c-.04-1.311-.518-1.99-1.43-2.035-.87.09-1.348.77-1.431 2.035v5.222zM102.02 49.441c-.042 1.946.518 2.895 1.68 2.85 1.16.045 1.742-.904 1.742-2.85 0-1.942-.582-2.915-1.742-2.915-1.162 0-1.722.973-1.68 2.915m5.848 0c-.125 2.895-1.514 4.384-4.168 4.478-2.697-.094-4.085-1.583-4.169-4.478.084-2.938 1.472-4.476 4.169-4.613 2.654.137 4.043 1.675 4.168 4.613M111.974 45.03v1.087h.062c.496-.859 1.304-1.288 2.426-1.288 1.243.136 2.094.678 2.55 1.627.663-1.084 1.576-1.627 2.738-1.627 1.201.181 2.051.724 2.548 1.627.167.5.249 1.202.249 2.105v5.221h-2.425v-5.221c-.042-1.312-.52-1.99-1.43-2.035-.87.09-1.348.77-1.433 2.035v5.221h-2.362v-5.221c-.083-1.358-.56-2.035-1.43-2.035-.914.135-1.391.812-1.431 2.035v5.221h-2.428V45.03h2.366zM126.653 48.356h2.8c0-1.221-.476-1.83-1.431-1.83-.87 0-1.326.609-1.369 1.83m5.288 1.765h-5.288c-.041 1.493.414 2.215 1.369 2.17.746.045 1.246-.314 1.492-1.086h2.178c-.248 1.765-1.472 2.669-3.67 2.714-2.571 0-3.836-1.492-3.793-4.478.082-2.938 1.347-4.476 3.793-4.612 1.66 0 2.799.678 3.422 2.034.208.543.352 1.064.436 1.561v.747c.04.226.061.542.061.95M133.56 53.783h2.052v-2.307h-2.053zM144.444 48.154h-2.365c-.123-1.04-.539-1.584-1.242-1.628-.623 0-.977.837-1.058 2.509V49.647c.04 1.808.414 2.69 1.12 2.644.747 0 1.14-.564 1.18-1.694h2.365c-.165 2.168-1.347 3.276-3.545 3.322-2.24-.093-3.443-1.583-3.61-4.477.167-2.892 1.37-4.432 3.61-4.613 2.24.136 3.42 1.244 3.545 3.325M147.927 49.441c-.043 1.946.518 2.895 1.68 2.85 1.16.045 1.742-.904 1.742-2.85 0-1.942-.582-2.915-1.742-2.915-1.162 0-1.723.973-1.68 2.915m5.848 0c-.125 2.895-1.515 4.384-4.168 4.478-2.697-.094-4.085-1.583-4.169-4.478.084-2.938 1.472-4.476 4.17-4.613 2.652.137 4.042 1.675 4.167 4.613M157.882 45.03v1.087h.06c.499-.859 1.309-1.288 2.428-1.288 1.242.136 2.091.678 2.55 1.627.662-1.084 1.575-1.627 2.736-1.627 1.202.181 2.054.724 2.552 1.627.164.5.25 1.202.25 2.105v5.221h-2.427v-5.221c-.043-1.312-.52-1.99-1.431-2.035-.871.09-1.35.77-1.432 2.035v5.221h-2.364v-5.221c-.084-1.358-.559-2.035-1.43-2.035-.914.135-1.39.812-1.432 2.035v5.221h-2.425V45.03h2.365zM170.633 53.783h2.052v-2.307h-2.052zM179.34 49.713c-1.698-.089-2.55.363-2.55 1.356 0 .77.395 1.18 1.183 1.221.912.047 1.367-.814 1.367-2.577m-2.176-2.17h-2.303c.043-.993.415-1.718 1.122-2.172.539-.315 1.327-.495 2.363-.542 2.198.047 3.318 1.132 3.359 3.257v5.086c.083.318.123.52.123.61h-2.114a5.737 5.737 0 0 1-.125-1.151c-.497.859-1.326 1.288-2.488 1.288-1.698-.093-2.57-.925-2.612-2.51.084-1.312.665-2.239 1.743-2.781.703-.315 1.74-.474 3.108-.474v-.816c-.124-.677-.496-1.038-1.118-1.083-.623.045-.974.473-1.058 1.288M189.046 53.783l-.125-1.084c-.539.813-1.347 1.22-2.426 1.22-1.452-.093-2.342-.7-2.676-1.833-.123-.36-.164-.813-.123-1.356v-5.7h2.364v5.295c.04 1.357.52 2.012 1.43 1.965.872-.09 1.348-.744 1.43-1.965V45.03h2.429v7.192a2.6 2.6 0 0 0 0 .813c.04.318.06.567.06.747h-2.363zM169.553 12.7V7.07h-4.64V10.8l-7.31-2.99-5.62-2.303-5.62 2.302-17.59 7.198v4.6l23.21-9.499 23.21 9.5v-4.601z"/>
    </g>
</svg>
