<svg xmlns="http://www.w3.org/2000/svg" xmlns:xlink="http://www.w3.org/1999/xlink" width="19" height="28.061224577378248"><rect id="backgroundrect" width="100%" height="100%" x="0" y="0" fill="none" stroke="none" class="selected"/>
    <defs>
        <path id="a" d="M8.679 25.071S0 13.471 0 8.68a8.679 8.679 0 0 1 17.357 0c0 4.793-8.678 16.392-8.678 16.392zm0-12.571a3.821 3.821 0 1 0 0-7.643 3.821 3.821 0 0 0 0 7.643z"/>
    </defs>

<g class="currentLayer"><title>Layer 1</title><g fill="none" fill-rule="evenodd" id="svg_1" class="">
        <ellipse cx="9.475796781764139" cy="26.237224819308913" fill="#444" opacity=".2" rx="5.81127633007586" ry="1.6607336529036592" id="svg_2"/>
        <use fill="#0F76BB" xlink:href="#a" id="svg_3" y="-2.4357387316224224" x="2.2437735170029285" transform="matrix(0.8609298266779052,0,0,0.8609298266779052,0.07205535631764892,4.167064514339597) "/>
        <path stroke="#FFF" stroke-width="2" d="M8.78619207598399,24.170133041113072 l0.688743861342325,0.9211949145453586 l0.6896047911690044,-0.9211949145453586 a83.58337222302441,83.58337222302441 0 0 0 1.1837785116821196,-1.6469587584348337 a85.22774819197923,85.22774819197923 0 0 0 2.5948424976072055,-3.924118149997892 a57.785609966620996,57.785609966620996 0 0 0 1.447223038645559,-2.4596765148187747 c1.5453690388868402,-2.792856357743124 2.4174909533115576,-5.019220889532188 2.4174909533115576,-6.597305261832788 C17.807875729741756,4.939543502608709 14.077466790746394,1.2091345636133441 9.476657796979671,1.2091345636133441 C4.873266013732912,1.2091345636133441 1.1428570747375488,4.939543502608709 1.1428570747375488,9.54207435602879 c0,1.577223442473922 0.8721219144247198,3.80530983391634 2.4174909533115576,6.597305261832788 a57.785609966620996,57.785609966620996 0 0 0 1.447223038645559,2.4596765148187747 a85.22774819197923,85.22774819197923 0 0 0 3.7786210092893264,5.5710769084327225 zm0.688743861342325,-12.199375644025917 a2.428683041058371,2.428683041058371 0 1 1 0,-4.858227011943418 a2.428683041058371,2.428683041058371 0 0 1 0,4.858227011943418 z" id="svg_4"/>
    </g></g></svg>