<svg xmlns="http://www.w3.org/2000/svg" width="20" height="20" viewBox="0 0 20 20">
    <g fill="#F7941F" fill-rule="evenodd">
        <path d="M15 8h1.005a1 1 0 0 1 .995.997v6.006c0 .55-.456.997-.995.997h-8.01A1 1 0 0 1 7 15.003V8.997c0-.55.456-.997.995-.997H9V6h1v2h4V6h1v2zM5 4h13.007c.548 0 .993.444.993 1 0 .552-.445 1-.993 1H5v14H3V6H1.993A.994.994 0 0 1 1 5c0-.552.445-1 .993-1H3V1.995a1.001 1.001 0 0 1 2 0V4z"/>
        <ellipse cx="12.143" cy="19.214" opacity=".2" rx="5.5" ry="1"/>
    </g>
</svg>
